# xmcd CD database file
#
# Track frame offsets:
#	182
#	11945
#	23485
#	34765
#	45152
#	55030
#	66842
#	75602
#	86227
#	100087
#	109005
#	121147
#	131607
#	143327
#	154845
#	165937
#
# Disc length: 2302 seconds
#
# Revision: 2
# Processed by: cddbd v1.4PL0 Copyright (c) Steve Scherf et al.
# Submitted via: CDex 1.40Release
#
DISCID=b908fc10
DTITLE=Willie Nelson and Waylon Jennings - OUTLAW REUNION
DYEAR=1997
DGENRE=Country
TTITLE0=Willie Nelson - Some Other Time
TTITLE1=Willie Nelson - Is There Something On Your Mind
TTITLE2=Waylon Jennings - Sally Was A Good Old Girl
TTITLE3=Waylon Jennings - White Lightning
TTITLE4=Willie Nelson - Broken Promises
TTITLE5=Willie Nelson - End Of Understanding
TTITLE6=Waylon Jennings - Loves`s Gonna Live Here
TTITLE7=Waylon Jennings - Burning Memories
TTITLE8=Willie Nelson - Home Is Where You Happy
TTITLE9=Willie Nelson - Waiting Time
TTITLE10=Waylon Jennings - Don`t Think Twice
TTITLE11=Waylon Jennings - Lorena
TTITLE12=Willie Nelson - Happiness Lives Next Door
TTITLE13=Willie Nelson - I´ll Stay Around
TTITLE14=Waylon Jennings - Dream Baby
TTITLE15=Waylon Jennings - It`s So Easy
EXTD=YEAR: 1997 ID3G: 2
EXTT0=
EXTT1=
EXTT2=
EXTT3=
EXTT4=
EXTT5=
EXTT6=
EXTT7=
EXTT8=
EXTT9=
EXTT10=
EXTT11=
EXTT12=
EXTT13=
EXTT14=
EXTT15=
PLAYORDER=
